<svg width="100%" height="100%" viewBox="0 0 196 48" fill="none" xmlns="http://www.w3.org/2000/svg">
    <g clip-path="url(#clip0_1643_3046)">
        <path d="M142.7 0H149.328V10.2798H153.254V16.0196H149.328V36.9035H142.7V16.052H139.289V10.2798H142.7V0Z" fill="#FFFDF5"></path>
        <path d="M97.1391 0V13.2307C95.9484 12.0309 94.6616 11.1229 93.2777 10.5068C91.8938 9.89068 90.3819 9.5988 88.8053 9.5988C85.3625 9.5988 82.4345 10.9284 80.0213 13.555C77.6081 16.1817 76.4176 19.5543 76.4176 23.6727C76.4176 27.629 77.6724 30.969 80.15 33.6282C82.6276 36.2874 85.5877 37.6169 88.9984 37.6169C90.5106 37.6169 91.9267 37.3575 93.2456 36.8062C94.5645 36.2549 95.8513 35.3793 97.1391 34.1146V36.9359H103.767V0H97.1391ZM94.3071 30.2232C93.1495 31.0663 91.7655 31.4879 90.1888 31.4879C89.8992 31.4879 89.6096 31.4555 89.3201 31.4231C89.2236 31.4231 89.1271 31.3906 89.0305 31.3906C88.934 31.3582 88.8053 31.3582 88.7088 31.3258C85.0729 30.6773 82.3058 27.4668 82.3058 23.5754C82.3058 19.23 85.8129 15.6954 90.1245 15.6954C90.7037 15.6954 91.2828 15.7602 91.8297 15.8899C92.5376 16.0196 93.1815 16.279 93.7604 16.6033C96.2378 17.9329 97.9432 20.5271 97.9432 23.5754C97.9112 26.3967 96.4952 28.8288 94.3071 30.2232Z" fill="#FFFDF5"></path>
        <path d="M128.542 10.2796V13.2306C127.351 12.0306 126.065 11.1227 124.682 10.5066C123.298 9.8904 121.786 9.59852 120.208 9.59852C116.766 9.59852 113.838 10.9281 111.425 13.5548C109.012 16.1815 107.821 19.5541 107.821 23.6725C107.821 27.6287 109.076 30.9689 111.553 33.628C114.031 36.2871 116.991 37.6167 120.402 37.6167C121.914 37.6167 123.33 37.3572 124.65 36.8059C125.968 36.2547 127.255 35.3791 128.542 34.1144V36.9356H135.17V10.2796H128.542ZM123.877 31.1634C123.169 31.3904 122.397 31.5201 121.592 31.5201C120.563 31.5201 119.63 31.3255 118.761 30.9365C115.865 29.769 113.838 26.9478 113.838 23.64C113.838 19.2946 117.345 15.76 121.656 15.76C125.968 15.76 129.475 19.2946 129.475 23.64C129.475 27.1747 127.127 30.1905 123.877 31.1634Z" fill="#FFFDF5"></path>
        <path d="M176.323 10.2796V13.2306C175.132 12.0306 173.846 11.1227 172.463 10.5066C171.079 9.8904 169.567 9.59852 167.989 9.59852C164.547 9.59852 161.619 10.9281 159.206 13.5548C156.793 16.1815 155.602 19.5541 155.602 23.6725C155.602 27.6287 156.857 30.9689 159.334 33.628C161.812 36.2871 164.772 37.6167 168.183 37.6167C169.695 37.6167 171.111 37.3572 172.43 36.8059C173.749 36.2547 175.036 35.3791 176.323 34.1144V36.9356H182.951V10.2796H176.323ZM173.009 30.5473C171.947 31.1958 170.725 31.4877 169.373 31.4877C168.859 31.4877 168.344 31.4228 167.861 31.3255C164.257 30.6446 161.522 27.4341 161.522 23.6076C161.522 19.2622 165.029 15.7275 169.341 15.7275C170.049 15.7275 170.692 15.8248 171.336 15.987C171.432 16.0194 171.529 16.0194 171.625 16.0518C171.69 16.0842 171.755 16.0842 171.819 16.1166C171.98 16.1815 172.14 16.2139 172.301 16.3112C175.132 17.4786 177.128 20.2999 177.128 23.5752C177.128 26.591 175.455 29.2177 173.009 30.5473Z" fill="#FFFDF5"></path>
        <path fill-rule="evenodd" clip-rule="evenodd" d="M14.9618 9.5988C18.4046 9.5988 21.3326 10.9284 23.7458 13.555C26.1589 16.1817 27.3494 19.5543 27.3494 23.6727C27.3494 27.629 26.1267 30.9366 23.6492 33.6282C21.1395 36.2874 18.1794 37.6169 14.7687 37.6169C13.2565 37.6169 11.8407 37.3575 10.5214 36.8062C9.20229 36.2549 7.88307 35.3469 6.59604 34.1146V36.9359H0V0H6.59604V13.2307C7.78654 12.0309 9.10575 11.1229 10.4893 10.5068C11.8728 9.89068 13.3851 9.5988 14.9618 9.5988ZM13.5782 31.4879C14.3183 31.4879 15.0583 31.3906 15.7339 31.1636C18.9837 30.2232 21.3647 27.2074 21.4291 23.6079C21.4291 19.2624 17.9219 15.7278 13.6104 15.7278C9.29883 15.7278 5.79164 19.2624 5.79164 23.6079C5.79164 26.6562 7.52914 29.3153 10.0389 30.6124C11.0685 31.1961 12.259 31.4879 13.5782 31.4879ZM64.3193 10.2796V13.2306C62.9679 11.9334 61.6166 11.0254 60.2652 10.4417C58.9138 9.8904 57.4659 9.59852 55.9536 9.59852C52.7038 9.59852 49.9046 10.7659 47.5557 13.0684C44.9495 15.6303 43.6625 19.0352 43.6625 23.2509C43.6625 27.2071 44.8852 30.4824 47.3305 33.0442C49.7759 35.6385 52.7682 36.9032 56.3076 36.9032C57.9163 36.9032 59.3643 36.6438 60.6513 36.125C61.9384 35.6061 63.161 34.763 64.3193 33.5956C64.3193 35.7358 64.0941 37.2599 63.6437 38.1355C63.1932 39.0111 62.421 39.7245 61.3592 40.2758C60.2652 40.827 58.8495 41.1189 57.0476 41.1189C55.6641 41.1189 54.4414 40.9243 53.4117 40.5352C52.3821 40.1461 51.5455 39.5948 50.902 38.8489H43.5982C44.1773 40.665 45.0783 42.189 46.3009 43.4538C47.5236 44.7185 49.0037 45.6913 50.7733 46.3398C52.543 46.9885 54.731 47.3128 57.305 47.3128C62.1636 47.3128 65.7994 45.8859 68.2127 42.9998C70.0145 40.8919 70.9154 37.5518 70.9154 33.0442V10.2796H64.3193ZM57.4015 31.4877C53.09 31.4877 49.5829 27.953 49.5829 23.6076C49.5829 19.2622 53.09 15.7275 57.4015 15.7275C61.7131 15.7275 65.2203 19.2622 65.2203 23.6076C65.2203 27.953 61.7131 31.4877 57.4015 31.4877ZM32.176 10.28H38.8041V36.9362H32.176V10.28Z" fill="url(#paint0_linear_1643_3046)"></path>
        <path d="M195.597 33.3363C195.597 34.1145 195.404 34.828 195.017 35.4765C194.632 36.1251 194.117 36.6439 193.473 37.0331C192.829 37.4223 192.089 37.6169 191.349 37.6169C190.577 37.6169 189.869 37.4223 189.226 37.0331C188.55 36.6439 188.035 36.1251 187.649 35.4765C187.263 34.828 187.07 34.1145 187.07 33.3363C187.07 32.558 187.263 31.8446 187.649 31.196C188.035 30.5475 188.55 29.9961 189.194 29.6394C189.837 29.2503 190.577 29.0558 191.317 29.0558C192.057 29.0558 192.797 29.2503 193.441 29.6394C194.084 30.0286 194.632 30.5475 194.985 31.196C195.404 31.8446 195.597 32.558 195.597 33.3363ZM194.824 33.3363C194.824 32.3634 194.47 31.5203 193.795 30.8393C193.12 30.1583 192.314 29.8016 191.349 29.8016C190.384 29.8016 189.548 30.1259 188.872 30.8069C188.197 31.4879 187.842 32.2986 187.842 33.2714C187.842 33.8875 188.003 34.4713 188.293 35.0226C188.614 35.5414 189.033 35.9954 189.58 36.2873C190.126 36.6115 190.706 36.7412 191.317 36.7412C191.929 36.7412 192.508 36.5791 193.054 36.2873C193.602 35.963 194.02 35.5414 194.342 35.0226C194.664 34.5361 194.824 33.9524 194.824 33.3363ZM189.837 31.2933H191.574C191.929 31.2933 192.218 31.3257 192.379 31.423C192.54 31.5203 192.701 31.65 192.797 31.8122C192.894 31.9743 192.958 32.2013 192.958 32.4607C192.958 32.6877 192.926 32.8498 192.862 32.9796C192.797 33.1093 192.669 33.239 192.508 33.3687C192.637 33.466 192.765 33.5309 192.797 33.6606C192.862 33.7578 192.894 33.9524 192.894 34.2118C192.926 34.6983 192.926 34.9902 192.958 35.0874C192.99 35.1522 193.022 35.2495 193.12 35.3144H192.122C192.089 35.2171 192.057 35.1198 192.025 35.055C192.025 34.9902 191.993 34.8605 191.993 34.6659C191.993 34.3091 191.961 34.1145 191.929 34.0173C191.897 33.92 191.864 33.8875 191.768 33.8227C191.704 33.7902 191.542 33.7578 191.349 33.7578H190.642V35.282H189.837V31.2933ZM190.706 32.0392V32.9796H191.414C191.704 32.9796 191.864 32.9471 191.961 32.8823C192.057 32.8174 192.089 32.6877 192.089 32.5255C192.089 32.3634 192.057 32.2338 191.961 32.1689C191.864 32.104 191.704 32.0716 191.414 32.0716H190.706V32.0392Z" fill="#FFFDF5"></path>
    </g>
    <defs>
        <linearGradient id="paint0_linear_1643_3046" x1="-16.3129" y1="5.48902" x2="28.029" y2="34.3822" gradientUnits="userSpaceOnUse">
            <stop stop-color="#00A9FE"></stop>
            <stop offset="1" stop-color="#0387FE"></stop>
        </linearGradient>
        <clipPath id="clip0_1643_3046">
            <rect width="196" height="48" fill="#FFFDF5"></rect>
        </clipPath>
    </defs>
</svg>