<svg viewBox="0 0 1909.15 600.31" version="1.1" xmlns="http://www.w3.org/2000/svg" id="Layer_1">
  
  <defs>
    <style>
      .st0 {
        fill: #212121;
      }

      .st1 {
        fill: #fffef5;
      }
    </style>
  </defs>
  <g>
    <path d="M1625.73,288.4c-3.91,0-7.11,3.17-7.11,7.11s3.17,7.11,7.11,7.11,7.11-3.17,7.11-7.11-3.17-7.11-7.11-7.11Z" class="st0"></path>
    <path d="M599.2,135.76c-22.13,0-42.4,9.95-57.97,23.43v-71.76h-30.78v215.16h30.78v-11.99c15.57,13.49,35.84,22.72,57.97,22.72,48.99,0,88.78-39.79,88.78-88.78s-39.83-88.78-88.78-88.78h0ZM597.74,282.55c-31.97,0-58.34-24.33-58.34-57.97,0-38.23,33.91-64.31,71.42-56.66,18.7,3.84,34.01,17.7,40.05,35.84,13.49,40.65-14.38,78.8-53.13,78.8h0Z" class="st0"></path>
    <path d="M1100.71,159.2c-15.57-13.49-35.84-23.43-57.97-23.43-48.99,0-88.78,39.79-88.78,88.78s39.83,88.78,88.78,88.78c22.13,0,42.4-9.24,57.97-22.72v11.99h30.78V87.44h-30.78v71.76ZM1044.15,282.55c-38.67,0-66.58-38.11-53.13-78.76,6-18.14,21.31-32.04,40.01-35.88,37.55-7.72,71.46,18.44,71.46,56.66,0,33.68-26.38,57.97-58.34,57.97h0Z" class="st0"></path>
    <polygon points="1395.75 116.47 1364.97 116.47 1364.97 145.53 1347.72 145.53 1347.72 175.63 1364.97 175.63 1364.97 302.6 1395.75 302.6 1395.75 175.63 1412.92 175.63 1412.92 145.53 1395.75 145.53 1395.75 116.47" class="st0"></polygon>
    <rect height="157.04" width="30.78" y="145.56" x="707.69" class="st0"></rect>
    <path d="M1297.24,159.2c-15.57-13.49-35.84-23.43-57.97-23.43-48.96,0-88.78,39.79-88.78,88.78s39.79,88.78,88.78,88.78c22.13,0,42.4-9.24,57.97-22.72v11.99h30.78v-157h-30.78v13.6h0ZM1240.68,282.55c-38.67,0-66.58-38.11-53.13-78.76,6-18.14,21.31-32.04,40.01-35.88,37.55-7.72,71.46,18.44,71.46,56.66,0,33.72-26.38,57.97-58.34,57.97h0Z" class="st0"></path>
    <path d="M1565.75,159.2c-15.57-13.49-35.84-23.43-57.97-23.43-48.96,0-88.78,39.79-88.78,88.78s39.79,88.78,88.78,88.78c22.13,0,42.4-9.24,57.97-22.72v11.99h30.78v-157h-30.78v13.6h0ZM1509.23,282.55c-38.67,0-66.58-38.11-53.13-78.76,6-18.14,21.31-32.04,40.01-35.88,37.55-7.72,71.46,18.44,71.46,56.66,0,33.72-26.38,57.97-58.34,57.97h0Z" class="st0"></path>
    <path d="M904.18,159.2c-15.57-13.49-35.84-23.43-57.97-23.43-48.96,0-88.78,39.79-88.78,88.78s39.79,88.78,88.78,88.78c22.13,0,42.4-9.24,57.97-22.72v8.35c0,46.42-32.53,62.26-63,62.26-8.91,0-17.51-1.82-25.59-5.44l-12.6,28.99c12.11,5.4,24.96,8.12,38.19,8.12,54.25,0,93.78-37.74,93.78-93.92v-153.35h-30.78v13.6h0ZM847.66,282.55c-38.67,0-66.58-38.11-53.13-78.76,6-18.14,21.31-32.04,40.01-35.88,37.55-7.72,71.46,18.44,71.46,56.66,0,33.68-26.38,57.97-58.34,57.97h0Z" class="st0"></path>
    <path d="M1684,238.41c6.85,0,13.15,2.91,17.62,7.53l10.1-9.95c-8.5-8.5-20.94-13.11-34.28-10.84-15.8,2.65-28.62,15.2-31.56,30.96-4.62,24.74,14.35,46.39,38.26,46.39,10.73,0,20.49-4.36,27.53-11.4l-10.1-9.95c-5.63,5.78-13.93,8.86-22.77,6.97-8.61-1.82-15.76-8.31-18.37-16.69-5.36-16.87,7.3-33.09,23.55-33.09h0v.07h0Z" class="st0"></path>
    <path d="M1752.41,224.58c-20.3.63-37.22,17.55-37.78,37.85-.63,21.94,17.1,40.09,38.94,40.09s38.97-17.51,38.97-38.97-18.14-39.6-40.16-38.97h.04ZM1747.19,287.84c-8.01-2.05-14.49-8.23-17.1-16.09-5.66-16.99,7.11-33.42,23.47-33.42,13.71,0,24.81,11.48,24.81,25.15,0,15.76-14.68,28.57-31.19,24.33h0v.04h0Z" class="st0"></path>
    <path d="M1878.93,224.62c-9.28,0-17.58,4.21-23.1,10.8-5.55-6.6-13.86-10.8-23.1-10.8-5.96,0-11.99,2.68-15.98,7.08v-3.91h-14.23v74.66h14.23v-47.5c0-10.58,7.16-16.13,15.98-16.13s16.02,6.04,16.02,16.13h0v47.5h14.23v-47.5h0c0-8.91,7.11-16.13,15.95-16.13,10.58,0,15.98,5.81,15.98,16.13v47.5h14.23v-47.5c0-19.23-13.56-30.37-30.22-30.37h0v.04h0Z" class="st0"></path>
  </g>
  <rect ry="100.07" rx="100.07" height="419.32" width="419.32" class="st0"></rect>
  <path d="M277.49,359.86c-22.06,0-42.96-8.61-58.83-24.18-15.95-15.65-24.7-36.32-24.7-58.23v-135.58c0-29.88-22.91-53.28-52.16-53.28-14.16,0-27.42,5.55-37.29,15.65-9.83,10.02-15.24,23.4-15.24,37.67s5.4,27.6,15.24,37.67c9.88,10.1,23.14,15.65,37.29,15.65h35.06v29.13h-40.69c-21.68,0-41.58-8.57-55.96-24.14-14.16-15.31-21.98-35.99-21.98-58.31s8.79-42.58,24.7-58.23c15.87-15.61,36.77-24.18,58.83-24.18s42.96,8.61,58.83,24.18c15.95,15.65,24.7,36.32,24.7,58.23v135.58c0,29.88,22.91,53.28,52.16,53.28,14.16,0,27.42-5.55,37.29-15.65,9.83-10.02,15.24-23.4,15.24-37.67s-5.4-27.65-15.24-37.67c-9.88-10.1-23.14-15.65-37.29-15.65h-34.84v-29.13h40.42c21.68,0,41.58,8.57,55.96,24.14,14.16,15.27,21.98,35.99,21.98,58.31s-8.79,42.58-24.7,58.23c-15.87,15.61-36.77,24.18-58.83,24.18h.04Z" class="st1"></path>
  <g>
    <path d="M546.57,570.94c-9.89,0-17.98-5.54-20.53-9.89v8.69h-15.59v-106.09h15.59v38.96c3.44-4.94,12.73-9.59,20.23-9.59,22.63,0,34.01,15.59,34.01,38.96s-11.39,38.96-33.72,38.96h0ZM544.47,506.81c-11.24,0-19.33,9.59-19.33,25.17s8.09,25.17,19.33,25.17,19.33-9.59,19.33-25.17-8.09-25.17-19.33-25.17Z" class="st0"></path>
    <path d="M602.92,494.23l17.83,50.79,17.23-50.79h16.49l-38.21,106.08h-15.59l12.29-34.31-26.52-71.77h16.49,0Z" class="st0"></path>
    <path d="M755.61,521.49l30.27,48.25h-19.48l-29.52-47.05h-12.14v47.05h-16.49v-104.89h36.71c19.78,0,31.02,11.09,31.02,28.92,0,14.38-7.34,24.27-20.38,27.72h0ZM759.21,493.78c0-9.29-5.85-13.34-13.79-13.34h-20.68v26.68h20.68c7.94,0,13.79-4.05,13.79-13.34Z" class="st0"></path>
    <path d="M828.59,523.3h13.03v-3.3c0-9.44-6.75-13.18-14.69-13.18-6.14,0-11.54,3.3-14.08,10.04l-14.24-3c3.15-12.73,13.93-20.83,28.47-20.83,17.53,0,30.12,7.65,30.12,29.82v46.9h-13.18l-1.5-9.89c-4.95,6.89-12.73,11.09-23.38,11.09-12.59,0-23.22-7.2-23.22-22.92s13.34-24.72,32.66-24.72h0ZM821.85,557.15c9.59,0,19.77-6.14,19.77-19.18v-1.65h-13.63c-9.59,0-15.59,4.5-15.59,11.69,0,5.09,2.85,9.14,9.44,9.14h0Z" class="st0"></path>
    <path d="M882.24,494.23l16.49,54.24,16.48-54.24h15.88l-25.02,75.52h-14.69l-25.02-75.52h15.89Z" class="st0"></path>
    <path d="M1006.91,536.33h-53.49c0,11.09,6.44,20.83,18.73,20.83,8.09,0,15.88-4.5,19.78-12.73l13.34,5.24c-7.34,14.24-15.88,21.28-33.12,21.28-24.88,0-35.21-20.98-35.21-38.96s10.34-38.96,35.21-38.96,34.76,19.63,34.76,36.56v6.74h0ZM953.72,523.3h36.71c-1.35-8.39-7.04-16.49-18.29-16.49-10.34,0-16.78,7.04-18.43,16.49h0Z" class="st0"></path>
    <path d="M1039.13,494.23v12.89c5.4-9,14.38-14.09,24.43-14.09,13.18,0,22.18,7.94,22.18,22.63v54.09h-15.59v-49.15c0-10.19-4.64-13.78-11.69-13.78-9.74,0-19.33,11.54-19.33,32.37v30.57h-15.59v-75.52h15.59,0Z" class="st0"></path>
    <path d="M1128.14,526.89v42.86h-16.49v-104.89h37.61c20.83,0,32.51,13.34,32.51,31.02s-11.69,31.02-32.51,31.02h-21.13,0ZM1165.01,495.87c0-9.74-5.54-15.43-14.98-15.43h-21.87v30.86h21.87c9.44,0,14.98-5.69,14.98-15.43Z" class="st0"></path>
    <path d="M1223,523.3h13.03v-3.3c0-9.44-6.74-13.18-14.69-13.18-6.14,0-11.54,3.3-14.08,10.04l-14.24-3c3.15-12.73,13.93-20.83,28.47-20.83,17.53,0,30.12,7.65,30.12,29.82v46.9h-13.18l-1.5-9.89c-4.95,6.89-12.73,11.09-23.38,11.09-12.59,0-23.22-7.2-23.22-22.92s13.34-24.72,32.66-24.72h0ZM1216.26,557.15c9.59,0,19.77-6.14,19.77-19.18v-1.65h-13.63c-9.59,0-15.59,4.5-15.59,11.69,0,5.09,2.85,9.14,9.44,9.14h0Z" class="st0"></path>
    <path d="M1337.78,550.11c-5.99,13.64-16.63,20.83-32.67,20.83-23.98,0-35.51-18.28-35.51-38.96s11.54-38.96,35.51-38.96c16.04,0,26.67,7.2,32.67,20.83l-13.93,5.99c-3.6-8.1-9.74-13.03-18.73-13.03-13.34,0-19.03,10.93-19.03,25.17s5.69,25.17,19.03,25.17c9,0,15.14-4.95,18.73-13.03l13.93,5.99Z" class="st0"></path>
    <path d="M1369.86,463.66v60.69l27.27-30.12h19.78l-31.61,34.76,33.56,40.76h-19.78l-29.22-36.11v36.11h-15.59v-106.09h15.59,0Z" class="st0"></path>
  </g>
</svg>